<svg width="122" height="122" viewBox="0 0 122 122" fill="none" xmlns="http://www.w3.org/2000/svg">
<rect x="0.260742" y="0.148438" width="120.964" height="120.964" rx="10" fill="#FBFCED"/>
<path d="M59.2354 87.2286C57.819 86.0872 56.5661 84.76 55.5038 83.2748C54.9113 82.4496 53.7673 82.2639 52.9502 82.8553C52.133 83.4535 51.9492 84.6088 52.5348 85.4339C53.7878 87.1874 55.2722 88.7689 56.9474 90.1167C57.2674 90.378 57.676 90.5224 58.0846 90.5224C58.643 90.5224 59.1673 90.2679 59.5146 89.8279C60.1547 89.0302 60.0253 87.8612 59.2354 87.2286Z" fill="#B3C41D"/>
<path d="M81.4414 54.3185C83.0076 55.2331 84.4444 56.3608 85.711 57.6742C86.0582 58.0317 86.5213 58.2311 87.0184 58.2311C87.5019 58.2311 87.9513 58.0455 88.2918 57.7085C89.0136 57.0003 89.0272 55.8244 88.3258 55.0956C86.8277 53.5415 85.1253 52.2075 83.2731 51.1279C82.4015 50.6191 81.278 50.9216 80.7741 51.8018C80.5289 52.2281 80.4608 52.7232 80.5902 53.2046C80.7128 53.679 81.0124 54.071 81.4414 54.3185Z" fill="#B3C41D"/>
<path d="M88.925 62.0684C89.7898 63.6775 90.4368 65.3897 90.8385 67.1706C91.0292 68.0164 91.7646 68.6078 92.6226 68.6078C92.7588 68.6078 92.895 68.594 93.0312 68.5596C94.0118 68.3327 94.6314 67.3425 94.4067 66.3523C93.93 64.2413 93.1674 62.2059 92.1391 60.3012C91.9076 59.868 91.5195 59.5517 91.0496 59.4142C90.5798 59.2766 90.0895 59.3316 89.6605 59.5654C89.2315 59.7992 88.9182 60.1912 88.782 60.6656C88.6458 61.1401 88.6867 61.6352 88.925 62.0684Z" fill="#B3C41D"/>
<path d="M69.1025 91.4298C67.3047 91.2029 65.5479 90.7284 63.8796 90.0201C62.9535 89.6213 61.8775 90.0683 61.4826 91.0035C61.0876 91.9386 61.5303 93.0251 62.4564 93.4239C64.4311 94.2628 66.5148 94.8267 68.6462 95.0949C68.7211 95.1017 68.796 95.1086 68.8709 95.1086C69.7902 95.1086 70.5733 94.4141 70.6823 93.4927C70.7436 93.0045 70.6074 92.5162 70.3077 92.1312C70.0081 91.7461 69.5859 91.4917 69.1025 91.4298Z" fill="#B3C41D"/>
<path d="M52.9775 78.4475C52.3919 76.8247 52.0174 75.1194 51.8676 73.3866C63.0761 72.472 72.0442 63.6154 73.2495 52.3795L73.2563 52.3864L73.2768 52.1732C73.2904 52.0288 73.304 51.8844 73.3176 51.7331C74.3731 51.8294 75.4218 52.0082 76.4432 52.2695C76.9199 52.3933 77.4102 52.3176 77.8255 52.0632C78.2477 51.8088 78.5405 51.4099 78.6631 50.9286C78.7857 50.4541 78.7108 49.9522 78.4656 49.5327C78.2137 49.1064 77.8187 48.8107 77.3421 48.6869C76.0346 48.35 74.6931 48.13 73.3312 48.0337C72.412 35.7251 62.2385 26.1533 49.9609 26.1533C37.0432 26.1533 26.5361 36.7634 26.5361 49.8078C26.5361 62.2195 36.0082 72.4789 48.1973 73.3935C48.3539 75.5526 48.8101 77.6774 49.5387 79.7059C49.8043 80.4348 50.4921 80.923 51.2547 80.923C51.4658 80.923 51.6769 80.8886 51.8812 80.813C52.8345 80.4623 53.318 79.4033 52.9775 78.4475ZM48.2109 69.694C38.0647 68.7932 30.1929 60.1566 30.1929 49.8078C30.1929 38.7988 39.0589 29.8459 49.9609 29.8459C60.2093 29.8459 68.762 37.7949 69.6541 48.0406C58.2277 48.9757 49.137 58.1556 48.2109 69.694ZM51.8812 69.6803C52.7869 60.2254 60.2774 52.6683 69.6405 51.7469C68.728 61.2018 61.2443 68.7588 51.8812 69.6803Z" fill="#B3C41D"/>
<path d="M94.4816 71.4615C94.1547 71.097 93.7053 70.8839 93.215 70.8564C92.7179 70.8289 92.2617 71.0008 91.9008 71.3308C91.5399 71.6609 91.3288 72.1147 91.3015 72.6098C91.213 74.4389 90.8794 76.2474 90.3005 77.9733C89.9805 78.936 90.498 79.9881 91.4514 80.3113C91.642 80.3732 91.8395 80.4075 92.0302 80.4075C92.8133 80.4075 93.5147 79.8987 93.7598 79.1492C94.4407 77.1 94.8357 74.9615 94.9447 72.7886C94.9787 72.3004 94.8153 71.8259 94.4816 71.4615Z" fill="#B3C41D"/>
<path d="M90.4367 82.3734C89.6059 81.8027 88.4688 82.0159 87.8968 82.8548C86.8753 84.3607 85.6564 85.7291 84.2673 86.9049C83.8927 87.2212 83.6612 87.6682 83.6204 88.1564C83.5795 88.6446 83.7293 89.126 84.0426 89.5042C84.3898 89.9236 84.9006 90.1643 85.4453 90.1643C85.8743 90.1643 86.2897 90.013 86.6234 89.7311C88.2645 88.3352 89.7081 86.7261 90.9202 84.9383C91.4854 84.0994 91.2743 82.9511 90.4367 82.3734Z" fill="#B3C41D"/>
<path d="M79.6911 89.8213C78.0432 90.5708 76.3 91.0934 74.5091 91.3616C74.0256 91.4372 73.6034 91.6916 73.3106 92.0905C73.0178 92.4893 72.902 92.9706 72.9701 93.4589C73.1063 94.3528 73.8826 95.0335 74.7747 95.0335C74.8632 95.0335 74.9517 95.0266 75.047 95.0129C77.1716 94.6897 79.2417 94.0777 81.196 93.1838C81.6387 92.9775 81.9791 92.6131 82.1562 92.1524C82.3264 91.6916 82.3128 91.1897 82.1085 90.7427C81.7 89.8144 80.6172 89.4018 79.6911 89.8213Z" fill="#B3C41D"/>
<path d="M40.4208 35.5812C39.9373 35.5262 39.4606 35.6637 39.0793 35.9731C34.871 39.3425 32.4604 44.3897 32.4604 49.8082C32.4604 50.8259 33.2776 51.6511 34.2854 51.6511C35.2932 51.6511 36.1104 50.8259 36.1104 49.8082C36.1104 45.5243 38.017 41.5292 41.3469 38.8612C41.7282 38.5517 41.9734 38.1185 42.0278 37.6234C42.0823 37.1352 41.9461 36.6539 41.6397 36.2619C41.3333 35.87 40.9111 35.6362 40.4208 35.5812Z" fill="#B3C41D"/>
<path d="M49.9608 32.1357C48.3129 32.1357 46.6786 32.3695 45.1056 32.8234C44.1386 33.1053 43.5734 34.1299 43.8526 35.1063C44.0773 35.8902 44.7992 36.4403 45.6095 36.4403C45.7797 36.4403 45.95 36.4128 46.1202 36.3647C47.3595 36.0002 48.6534 35.8214 49.9608 35.8214C50.9686 35.8214 51.7857 34.9963 51.7857 33.9786C51.7857 32.9609 50.9686 32.1357 49.9608 32.1357Z" fill="#B3C41D"/>
</svg>
