<svg width="39" height="42" viewBox="0 0 39 42" fill="none" xmlns="http://www.w3.org/2000/svg">
<path d="M13.9289 22.645L9.93286 26.0656V12.3835C9.93286 12.1567 10.018 11.9392 10.1694 11.7788C10.3209 11.6184 10.5263 11.5283 10.7405 11.5283H23.6625C23.8767 11.5283 24.0821 11.6184 24.2335 11.7788C24.385 11.9392 24.4701 12.1567 24.4701 12.3835V21.7899C24.4701 22.0167 24.385 22.2342 24.2335 22.3946C24.0821 22.5549 23.8767 22.645 23.6625 22.645H13.9289Z" stroke="#CCCFD0" stroke-width="1.7" stroke-linecap="round" stroke-linejoin="round"/>
<path d="M14.7788 22.6451V26.9208C14.7788 27.1475 14.8639 27.3651 15.0154 27.5254C15.1668 27.6858 15.3722 27.7759 15.5864 27.7759H25.32L29.316 31.1964V17.5143C29.316 17.2875 29.231 17.07 29.0795 16.9096C28.928 16.7493 28.7226 16.6592 28.5084 16.6592H24.4703" stroke="#CCCFD0" stroke-width="1.7" stroke-linecap="round" stroke-linejoin="round"/>
</svg>
