<svg width="122" height="122" viewBox="0 0 122 122" fill="none" xmlns="http://www.w3.org/2000/svg">
<rect x="0.260742" y="0.0839844" width="120.964" height="120.964" rx="10" fill="#FBFCED"/>
<path d="M91.61 56.278C91.6031 56.278 91.6031 56.278 91.61 56.278L64.9872 29.4011C63.8542 28.257 62.3504 27.626 60.7435 27.626C59.1367 27.626 57.6328 28.257 56.4929 29.4011L29.8976 56.2641C29.8908 56.271 29.877 56.2849 29.8702 56.2918C27.5423 58.6564 27.5423 62.4979 29.8839 64.8555C30.9483 65.9373 32.3628 66.5614 33.8667 66.6238C33.9285 66.6307 33.9903 66.6307 34.0521 66.6307H35.1096V86.4069C35.1096 90.3178 38.2614 93.5075 42.1412 93.5075H52.5514C53.6089 93.5075 54.4603 92.6408 54.4603 91.5798V76.0681C54.4603 74.2791 55.9024 72.8298 57.6672 72.8298H63.8061C65.5778 72.8298 67.0129 74.2791 67.0129 76.0681V91.5729C67.0129 92.6408 67.8713 93.5006 68.9219 93.5006H79.3321C83.2118 93.5006 86.3637 90.3178 86.3637 86.4V66.6307H87.3457C88.9525 66.6307 90.4564 65.9997 91.5963 64.8555C93.9447 62.491 93.9447 58.6425 91.61 56.278ZM88.9045 62.1235C88.4925 62.5395 87.9431 62.7684 87.3594 62.7684H84.4616C83.4041 62.7684 82.5526 63.6351 82.5526 64.6961V86.4C82.5526 88.1821 81.1175 89.6383 79.3458 89.6383H70.8446V76.0681C70.8446 72.1572 67.6928 68.9675 63.813 68.9675H57.674C53.7943 68.9675 50.6424 72.1503 50.6424 76.0681V89.6452H42.1412C40.3764 89.6452 38.9344 88.196 38.9344 86.4069V64.703C38.9344 63.6351 38.076 62.7753 37.0254 62.7753H34.1757C34.1482 62.7753 34.1139 62.7684 34.0864 62.7684C33.5165 62.7614 32.9808 62.5326 32.5826 62.1235C31.7311 61.2636 31.7311 59.8629 32.5826 59.0031L59.1985 32.1332C59.6105 31.7171 60.1598 31.4883 60.7435 31.4883C61.3272 31.4883 61.8765 31.7171 62.2886 32.1332L88.8976 59.0031C88.9045 59.01 88.9045 59.01 88.9113 59.017C89.7491 59.8699 89.7491 61.2706 88.9045 62.1235Z" fill="#B3C41D"/>
</svg>
