<svg width="39" height="42" viewBox="0 0 39 42" fill="none" xmlns="http://www.w3.org/2000/svg">
<path d="M9.92213 18.3701H14.7679V29.4868H9.92213C9.70793 29.4868 9.50251 29.3967 9.35105 29.2364C9.19959 29.076 9.1145 28.8585 9.1145 28.6317V19.2252C9.1145 18.9985 9.19959 18.7809 9.35105 18.6206C9.50251 18.4602 9.70793 18.3701 9.92213 18.3701V18.3701Z" stroke="#CCCFD0" stroke-width="1.7" stroke-linecap="round" stroke-linejoin="round"/>
<path d="M14.7678 18.3697L18.8059 9.81836C19.2302 9.81836 19.6503 9.90683 20.0422 10.0787C20.4341 10.2506 20.7903 10.5026 21.0902 10.8202C21.3902 11.1378 21.6282 11.5149 21.7905 11.9299C21.9529 12.3449 22.0364 12.7897 22.0364 13.2389V15.8043H28.283C28.512 15.8043 28.7384 15.8558 28.9472 15.9556C29.1559 16.0553 29.3423 16.2009 29.4939 16.3827C29.6454 16.5645 29.7588 16.7783 29.8263 17.0101C29.8939 17.2418 29.9141 17.486 29.8857 17.7267L28.6743 27.9882C28.6255 28.4019 28.4356 28.7824 28.1405 29.0583C27.8453 29.3341 27.4652 29.4864 27.0715 29.4864H14.7678" stroke="#CCCFD0" stroke-width="1.7" stroke-linecap="round" stroke-linejoin="round"/>
</svg>
