<svg width="12" height="12" viewBox="0 0 12 12" fill="none" xmlns="http://www.w3.org/2000/svg">
<path d="M8.00969 0.876953C8.6144 0.876953 9.10462 1.36717 9.10462 1.97188L1.44014 1.97188L1.44014 8.09058C0.83543 8.09058 0.345215 7.60037 0.345215 6.99566V1.97188C0.345215 1.36717 0.83543 0.876953 1.44014 0.876953H8.00969Z" fill="#677071"/>
<path d="M6.91477 11.8262L5.45487 10.2804H3.62999C3.02528 10.2804 2.53507 9.79022 2.53507 9.18551V4.16173C2.53507 3.55702 3.02528 3.0668 3.62999 3.0668H10.1995C10.8043 3.0668 11.2945 3.55702 11.2945 4.16173V9.18551C11.2945 9.79022 10.8043 10.2804 10.1995 10.2804H8.37467L6.91477 11.8262ZM7.90271 9.18551L10.1995 9.18551V4.16173L3.62999 4.16173V9.18551H5.92683L6.91477 10.2316L7.90271 9.18551Z" fill="#677071"/>
</svg>
