<svg width="122" height="121" viewBox="0 0 122 121" fill="none" xmlns="http://www.w3.org/2000/svg">
<rect x="0.260742" y="0.0175781" width="120.964" height="120.964" rx="10" fill="#FBFCED"/>
<path d="M61.0036 93.4411C60.7171 93.4411 60.4447 93.3847 60.1792 93.2789C43.9909 86.6046 33.5388 70.8927 33.5388 53.2476V40.3648C33.5388 39.4688 34.0698 38.6715 34.8873 38.3258L60.1652 27.7289C60.4307 27.616 60.7102 27.5596 60.9966 27.5596C61.2831 27.5596 61.5695 27.616 61.835 27.7289L87.113 38.3258C87.9304 38.6715 88.4614 39.4688 88.4614 40.3648V53.2476C88.4614 70.8927 78.0093 86.6117 61.828 93.2789C61.5625 93.3847 61.2831 93.4411 61.0036 93.4411ZM37.9055 41.8323V53.2405C37.9055 68.6209 46.9114 82.5691 60.8429 88.7706L61.0036 88.8411L61.1643 88.7706C75.0958 82.5691 84.1017 68.628 84.1017 53.2405V41.8323L61.0036 32.1525L37.9055 41.8323ZM58.146 67.9154C57.5661 67.9154 57.0142 67.6826 56.602 67.2663L49.3987 59.9924C48.9864 59.5761 48.7559 59.0188 48.7559 58.4332C48.7559 57.8476 48.9864 57.2902 49.3987 56.874C49.8109 56.4577 50.3628 56.2249 50.9427 56.2249C51.5226 56.2249 52.0746 56.4577 52.4868 56.874L58.153 62.5958L69.5204 51.1169C69.9326 50.7007 70.4846 50.4678 71.0645 50.4678C71.6444 50.4678 72.1963 50.7007 72.6085 51.1169C73.0207 51.5332 73.2513 52.0905 73.2513 52.6761C73.2513 53.2617 73.0207 53.8191 72.6085 54.2353L59.6901 67.2663C59.2779 67.6826 58.7329 67.9154 58.146 67.9154Z" fill="#B3C41D"/>
</svg>
